<?xml version="1.0" encoding="UTF-8"?><svg xmlns="http://www.w3.org/2000/svg" viewBox="0 0 520.18 417.93"><g id="a"/><g id="b"><g id="c"><path d="M259.92,417.93c-67.16,0-134.32,0-201.48,0-9.89,0-11.38-1.34-12.88-11.08-8.29-53.94-16.63-107.88-24.91-161.83C13.75,200.13,6.85,155.23,.13,110.3c-.47-3.17,.53-6.55,.84-9.84,2.38,1.8,5.01,3.34,7.1,5.43,32.75,32.75,65.43,65.57,98.12,98.37,.94,.94,1.88,1.89,2.81,2.85,5.59,5.76,5.62,6.99,.39,12.8-14.84,16.49-17.59,35.39-8.86,55.2,8.97,20.36,25.5,31.29,47.93,31.71,22.44,.42,43.64-16.21,50.01-38.27,6.17-21.38-2.93-45.6-21.82-57.6-3.91-2.48-8.19-4.42-12.38-6.44-5.35-2.58-5.8-3.31-3.16-8.67,9.79-19.86,19.66-39.67,29.52-59.5,22.07-44.41,44.14-88.83,66.26-133.21,.6-1.21,1.87-2.1,2.82-3.14,1.11,1.06,2.62,1.91,3.26,3.2,31.2,62.56,62.33,125.15,93.44,187.76,4.87,9.79,6.3,10.57-5.24,15.54-22.97,9.88-35.26,33.87-30.6,58.03,4.47,23.14,25.38,41.03,49.41,42.28,19.94,1.04,40.04-11.44,48.92-30.37,9.14-19.48,5.82-41.02-8.81-57.1-5.14-5.65-5.09-6.31,.3-11.73,34.8-34.94,69.58-69.9,104.43-104.79,1.13-1.13,2.9-1.63,4.37-2.42,.34,1.69,1.18,3.45,.95,5.06-3.6,24.87-7.24,49.73-11.06,74.56-5.15,33.55-10.49,67.06-15.68,100.6-6.71,43.41-13.34,86.83-20.03,130.24-.84,5.43-2.86,7.03-8.98,7.04-17.33,.03-34.66-.04-51.99-.04-50.83,0-101.66,0-152.49,0v.07Z"/></g></g></svg>